<?xml version="1.0" encoding="iso-8859-1"?>
<!-- Uploaded to: SVG Repo, www.svgrepo.com, Generator: SVG Repo Mixer Tools -->
<!DOCTYPE svg PUBLIC "-//W3C//DTD SVG 1.1//EN" "http://www.w3.org/Graphics/SVG/1.1/DTD/svg11.dtd">
<svg fill="#000000" height="800px" width="800px" version="1.1" id="Capa_1" xmlns="http://www.w3.org/2000/svg" xmlns:xlink="http://www.w3.org/1999/xlink" 
	 viewBox="0 0 297.145 297.145" xml:space="preserve">
<g>
	<path d="M185.709,30.037C185.709,7.891,166.697,0,148.905,0s-36.804,7.891-36.804,30.037c0,13.868,20.757,39.3,36.802,55.377
		C164.948,69.324,185.709,43.882,185.709,30.037z"/>
	<path d="M248.058,252.043c11.885,0,25.514-9.928,25.514-21.716V77.93c0-12.578-10.37-25.635-22.721-28.513l-28.577-6.657
		l4.009,12.418c2.471,7.723-2.124,13.967-10.232,13.967h-32.3c-10.052,14-22.18,25.425-27.18,30.581v197.419h76.204
		c2.213-36-1.216-66.939-9.588-86.654c-22.497-52.967,0.245-81.08,1.224-82.241c2.798-3.319,7.758-3.849,11.077-1.052
		c3.32,2.799,3.744,7.705,0.945,11.024c-0.657,0.821-17.305,22.208,1.172,65.71C242.963,216.542,246.458,233.063,248.058,252.043z"
		/>
	<path d="M49.419,252.043c1.6-18.98,5.262-35.528,10.618-48.138c18.487-43.529,1.922-65.133,1.206-66.03
		c-2.787-3.331-2.287-8.251,1.043-11.035c3.33-2.786,8.331-2.308,11.116,1.023c0.979,1.17,23.701,29.679,1.212,82.627
		c-8.372,19.715-11.794,50.654-9.581,86.654h75.538V99.726c-5-5.155-16.458-16.581-26.507-30.581H81.759
		c-8.107,0-12.718-6.244-10.248-13.967l3.828-11.937l-28.689,6.83c-12.363,2.969-23.078,16.142-23.078,28.74v151.516
		C23.572,242.115,37.535,252.043,49.419,252.043z"/>
</g>
</svg>